{"title":"Nicole Scherzinger - Run (2014.Pop)","uid":11460827,"size":74012946,"categoryP":"video","categoryS":"music_videos","magnet":"?xt=urn:btih:4de2f25c669c71ae3af47f1b135e87a6e81504cf&amp;dn=Nicole+Scherzinger+-+Run+%282014.Pop%29&amp;tr=udp%3A%2F%2Ftracker.openbittorrent.com%3A80&amp;tr=udp%3A%2F%2Fopen.demonii.com%3A1337&amp;tr=udp%3A%2F%2Ftracker.coppersurfer.tk%3A6969&amp;tr=udp%3A%2F%2Fexodus.desync.com%3A6969","seeders":1,"leechers":0,"uploader":"MeRaDil","files":-1,"time":1415986334,"description":"NICOLE SCHERZINGER - RUN\n\n\n &lt;a href=&quot;\nhttp://ultraimg.com/images/NicoleScherzinger.png&quot; rel=&quot;nofollow&quot; target=&quot;_NEW&quot;&gt;\nhttp://ultraimg.com/images/NicoleScherzinger.png&lt;/a&gt;\n\n\nMPEG4 MUSIC VID\nGeneral\nNicole Scherzinger -- Run\nFormat                                   : MPEG-4\nFormat profile                           : Base Media\nCodec ID                                 : isom\nFile size                                : 70.6 MiB\nDuration                                 : 3mn 40s\nOverall bit rate                         : 2 682 Kbps\nMusicVid name                            : Run\nMusicVid name/More                       : Nicole Scherzinger\nAlbum                                    : Big Fat Lie\nPerformer                                : Nicole Scherzinger\nGenre                                    : Pop\nContentType                              : Music Video\nRecorded date                            : 2014\nISRC                                     : The Promo Bay\nCopyright                                : Nicole Scherzinger\nCover                                    : Yes\nRating                                   : ****\nMake                                     : MeRaDil\noday                                     : 13-11-2014  USA\nrati                                     : (Binary)\nArtist url                               : http://www.nicolescherzingerofficial.com\nlabel                                    : RCA\nrelease                                  : USA . november 13 . 2014\nPart_ID                                  : Run\n\nVideo\nID                                       : 1\nFormat                                   : AVC\nFormat/Info                              : Advanced Video Codec\nFormat profile                           : &lt;a class=&quot;__cf_email__&quot; href=&quot;/cdn-cgi/l/email-protection&quot; data-cfemail=&quot;753d1c121d3539415b45&quot;&gt;[email&amp;#160;protected]&lt;/a&gt;&lt;script cf-hash='f9e31' type=&quot;text/javascript&quot;&gt;\n/* &lt;![CDATA[ */!function(){try{var t=&quot;currentScript&quot;in document?document.currentScript:function(){for(var t=document.getElementsByTagName(&quot;script&quot;),e=t.length;e--;)if(t[e].getAttribute(&quot;cf-hash&quot;))return t[e]}();if(t&amp;&amp;t.previousSibling){var e,r,n,i,c=t.previousSibling,a=c.getAttribute(&quot;data-cfemail&quot;);if(a){for(e=&quot;&quot;,r=parseInt(a.substr(0,2),16),n=2;a.length-n;n+=2)i=parseInt(a.substr(n,2),16)^r,e+=String.fromCharCode(i);e=document.createTextNode(e),c.parentNode.replaceChild(e,c)}}}catch(u){}}();/* ]]&gt; */&lt;/script&gt;\nFormat settings, CABAC                   : Yes\nFormat settings, ReFrames                : 2 frames\nCodec ID                                 : avc1\nCodec ID/Info                            : Advanced Video Coding\nDuration                                 : 3mn 40s\nBit rate                                 : 2 419 Kbps\nWidth                                    : 1 920 pixels\nHeight                                   : 1 080 pixels\nDisplay aspect ratio                     : 16:9\nFrame rate mode                          : Constant\nFrame rate                               : 25.000 fps\nColor space                              : YUV\nChroma subsampling                       : 4:2:0\nBit depth                                : 8 bits\nScan type                                : Progressive\nBits/(Pixel*Frame)                       : 0.047\nStream size                              : 63.6 MiB (90%)\n\nAudio\nID                                       : 2\nFormat                                   : AAC\nFormat/Info                              : Advanced Audio Codec\nFormat profile                           : LC\nCodec ID                                 : 40\nDuration                                 : 3mn 40s\nBit rate mode                            : Constant\nBit rate                                 : 256 Kbps\nChannel(s)                               : 2 channels\nChannel positions                        : Front: L R\nSampling rate                            : 44.1 KHz\nCompression mode                         : Lossy\nStream size                              : 6.74 MiB (10%)\n &lt;a href=&quot;\nhttps://thepiratebay.se/user/MeRaDil&quot; rel=&quot;nofollow&quot; target=&quot;_NEW&quot;&gt;\nhttps://thepiratebay.se/user/MeRaDil&lt;/a&gt;\n\nNicole Scherzinger * Big Fat Lie\n\n:)","torrent":{"xt":"urn:btih:4de2f25c669c71ae3af47f1b135e87a6e81504cf","amp;dn":"Nicole+Scherzinger+-+Run+%282014.Pop%29","amp;tr":["udp%3A%2F%2Ftracker.openbittorrent.com%3A80","udp%3A%2F%2Fopen.demonii.com%3A1337","udp%3A%2F%2Ftracker.coppersurfer.tk%3A6969","udp%3A%2F%2Fexodus.desync.com%3A6969"],"infoHash":"4de2f25c669c71ae3af47f1b135e87a6e81504cf","infoHashBuffer":{"type":"Buffer","data":[77,226,242,92,102,156,113,174,58,244,127,27,19,94,135,166,232,21,4,207]},"announce":[],"urlList":[]}}